<?xml version="1.0" standalone="no"?>
<!DOCTYPE svg PUBLIC "-//W3C//DTD SVG 20010904//EN"
 "http://www.w3.org/TR/2001/REC-SVG-20010904/DTD/svg10.dtd">
<svg version="1.0" xmlns="http://www.w3.org/2000/svg"
 width="700.000000pt" height="700.000000pt" viewBox="0 0 700.000000 700.000000"
 preserveAspectRatio="xMidYMid meet">
<metadata>
Created by potrace 1.14, written by Peter Selinger 2001-2017
</metadata>
<g transform="translate(0.000000,700.000000) scale(0.100000,-0.100000)"
fill="#000000" stroke="none">
<path d="M4178 6265 c-2 -2 -23 -5 -48 -8 -67 -8 -173 -53 -240 -103 -207
-152 -283 -443 -177 -674 19 -41 65 -115 92 -148 17 -21 129 -108 148 -115 21
-8 21 -20 2 -72 -7 -22 -46 -132 -85 -245 -40 -113 -106 -302 -147 -420 -41
-118 -79 -230 -85 -249 -8 -29 -12 -32 -36 -26 -15 3 -81 8 -147 10 -95 3
-135 0 -195 -15 -120 -31 -211 -77 -302 -152 l-47 -39 -178 136 c-98 75 -193
148 -210 162 -37 28 -310 237 -449 343 l-91 69 20 58 c24 71 25 195 3 268 -17
55 -20 51 54 89 25 12 119 61 210 109 l166 86 54 -27 c105 -52 239 -30 324 54
193 189 48 515 -222 498 -168 -11 -299 -185 -262 -349 l7 -33 -111 -57 c-61
-31 -161 -84 -222 -116 l-112 -59 -38 31 c-155 124 -368 135 -533 29 -249
-161 -282 -515 -67 -718 160 -151 391 -169 574 -44 l57 38 455 -348 c250 -191
455 -351 455 -355 0 -5 -12 -30 -26 -58 -27 -51 -62 -153 -75 -215 -12 -61
-11 -192 3 -265 7 -38 9 -72 5 -77 -4 -4 -164 -73 -357 -153 -192 -80 -359
-150 -370 -155 -11 -6 -85 -37 -164 -70 l-144 -59 -68 64 c-179 169 -437 205
-654 92 -90 -47 -197 -158 -240 -249 -121 -254 -55 -535 165 -710 150 -119
373 -148 554 -72 32 14 76 37 98 52 l40 26 52 -55 c28 -30 76 -81 106 -115 99
-108 245 -267 256 -278 8 -7 5 -23 -9 -56 -30 -68 -28 -179 5 -250 119 -257
465 -257 585 -1 34 71 36 182 4 254 -70 160 -237 236 -401 182 l-53 -17 -35
38 c-19 22 -80 88 -136 149 -100 109 -151 164 -218 239 l-36 39 36 75 c42 88
60 174 56 264 -3 62 -5 76 -19 144 l-7 30 104 43 c56 24 117 49 133 56 17 7
44 18 60 25 17 7 44 19 60 26 17 8 102 43 190 80 88 36 174 71 190 79 17 7 86
37 155 65 69 29 128 54 132 56 3 2 19 -17 36 -43 96 -156 277 -281 466 -322
157 -34 344 -13 478 55 33 17 54 22 60 16 6 -6 162 -230 348 -498 l338 -487
-34 -52 c-70 -105 -110 -289 -86 -393 12 -50 13 -50 -88 -79 -41 -12 -106 -30
-144 -41 l-69 -20 -53 53 c-175 173 -461 103 -533 -131 -62 -198 75 -400 283
-417 88 -8 207 40 262 106 36 42 71 121 79 177 4 25 7 46 8 46 3 2 255 74 297
84 32 8 37 7 55 -18 103 -142 293 -237 464 -231 256 9 457 174 528 434 11 38
11 193 1 242 -15 69 -58 159 -110 227 l-44 59 110 197 c61 108 156 279 211
379 l100 181 40 -6 c169 -27 322 18 433 127 261 259 160 692 -188 809 -57 19
-185 30 -230 19 -12 -3 -39 67 -118 301 l-102 304 24 23 c131 121 137 315 13
434 -55 53 -100 72 -183 77 -61 4 -80 1 -125 -20 -74 -34 -115 -71 -146 -132
-30 -59 -41 -151 -24 -213 27 -99 118 -184 223 -208 l52 -11 105 -310 104
-309 -70 -70 c-40 -40 -79 -92 -94 -122 -19 -41 -28 -51 -44 -48 -11 2 -40 7
-65 10 -25 3 -70 9 -100 15 -30 5 -75 12 -99 15 -43 5 -83 11 -131 20 -14 2
-45 7 -70 10 -25 3 -56 8 -70 10 -34 6 -72 12 -160 24 -41 6 -120 18 -175 26
-55 9 -113 17 -130 20 -16 2 -43 6 -60 9 -16 3 -48 7 -70 11 -54 7 -87 14 -90
17 -1 2 -5 39 -9 83 -12 171 -91 338 -221 471 -39 40 -139 114 -153 114 -22 0
-27 -19 103 355 42 121 111 319 152 440 42 121 78 223 82 226 3 4 49 9 101 12
114 6 174 24 258 74 170 103 263 261 268 458 3 105 -6 163 -37 232 -10 24 -19
45 -19 49 0 13 -67 102 -104 138 -109 103 -221 151 -378 160 -26 2 -49 2 -50
1z m121 -3010 c30 -4 63 -9 75 -11 11 -2 38 -6 61 -9 57 -9 96 -15 125 -20 14
-2 45 -7 70 -10 25 -3 86 -12 135 -20 50 -7 106 -16 126 -19 20 -3 128 -19
240 -36 112 -17 216 -31 232 -32 15 -1 27 -6 28 -12 11 -140 56 -247 142 -335
l35 -37 -45 -79 c-25 -44 -59 -105 -75 -135 -17 -30 -79 -140 -137 -245 -59
-104 -115 -207 -126 -228 -29 -56 -34 -58 -100 -36 -129 43 -325 22 -428 -46
-28 -18 -23 -23 -149 160 -30 44 -142 206 -249 360 -176 254 -278 402 -303
439 -7 11 -1 24 23 48 63 63 147 208 165 283 10 39 20 44 65 34 20 -4 60 -10
90 -14z"/>
</g>
</svg>
