<svg width="24" height="24" viewBox="0 0 24 24" fill="#FFFFFF" xmlns="http://www.w3.org/2000/svg">
    <path d="M12 2.163c3.204 0 3.584.012 4.85.07 1.366.062 2.633.323 3.608 1.298.975.975 1.236 2.242 1.298 3.608.058 1.266.07 1.646.07 4.851 0 3.204-.012 3.584-.07 4.85-.062 1.366-.323 2.633-1.298 3.608-.975.975-2.242 1.236-3.608 1.298-1.266.058-1.646.07-4.851.07-3.204 0-3.584-.012-4.85-.07-1.366-.062-2.633-.323-3.608-1.298-.975-.975-1.236-2.242-1.298-3.608-.058-1.266-.07-1.646-.07-4.851 0-3.204.012-3.584.07-4.85.062-1.366.323-2.633 1.298-3.608.975-.975 2.242-1.236 3.608-1.298 1.266-.058 1.646-.07 4.851-.07zm0-2.163C8.756 0 8.322.015 7.05.072 5.782.13 4.608.385 3.608 1.384 2.608 2.384 2.353 3.558 2.296 4.826 2.24 6.096 2.225 6.53 2.225 10.775c0 4.243.015 4.679.072 5.95.058 1.268.314 2.442 1.314 3.442 1 .999 2.174 1.256 3.442 1.314 1.268.057 1.702.072 5.95.072s4.679-.015 5.95-.072c1.268-.058 2.442-.314 3.442-1.314.999-1 1.256-2.174 1.314-3.442.057-1.268.072-1.702.072-5.95s-.015-4.679-.072-5.95c-.058-1.268-.314-2.442-1.314-3.442-1-1-2.174-1.256-3.442-1.314-1.268-.057-1.702-.072-5.95-.072zM12 5.838a6.162 6.162 0 100 12.324 6.162 6.162 0 000-12.324zm0 10.162a3.999 3.999 0 110-7.998 3.999 3.999 0 010 7.998zm6.406-11.845a1.44 1.44 0 11-2.881 0 1.44 1.44 0 012.881 0z" />
</svg>
