<svg width="24" height="24" viewBox="0 0 24 24" fill="#FFFFFF" xmlns="http://www.w3.org/2000/svg">
    <path d="M24 4.557a9.86 9.86 0 01-2.828.775 4.939 4.939 0 002.165-2.724 9.865 9.865 0 01-3.127 1.194 4.924 4.924 0 00-8.39 4.49A13.978 13.978 0 011.671 3.149a4.924 4.924 0 001.523 6.574 4.902 4.902 0 01-2.229-.616c-.054 2.281 1.582 4.415 3.95 4.89a4.93 4.93 0 01-2.224.084 4.927 4.927 0 004.604 3.419A9.874 9.874 0 010 21.543a13.949 13.949 0 007.548 2.211c9.056 0 14.01-7.503 14.01-14.01 0-.213-.004-.425-.014-.636A10.003 10.003 0 0024 4.557z" />
</svg>
