<?xml version="1.0" encoding="UTF-8" standalone="no"?>
<!-- Created with Inkscape (http://www.inkscape.org/) -->

<svg
   width="200"
   height="66"
   viewBox="0 0 264.58334 87.3125"
   version="1.1"
   id="svg1"
   inkscape:version="1.3 (0e150ed6c4, 2023-07-21)"
   sodipodi:docname="logo_large_ResistanceInBelgium.svg"
   inkscape:export-filename="logo_large_300dpi_ResistanceinBelgium.jpg"
   inkscape:export-xdpi="1200"
   inkscape:export-ydpi="1200"
   xmlns:inkscape="http://www.inkscape.org/namespaces/inkscape"
   xmlns:sodipodi="http://sodipodi.sourceforge.net/DTD/sodipodi-0.dtd"
   xmlns="http://www.w3.org/2000/svg"
   xmlns:svg="http://www.w3.org/2000/svg">
  <sodipodi:namedview
     id="namedview1"
     pagecolor="#ffffff"
     bordercolor="#cccccc"
     borderopacity="1"
     inkscape:showpageshadow="0"
     inkscape:pageopacity="1"
     inkscape:pagecheckerboard="false"
     inkscape:deskcolor="#d1d1d1"
     inkscape:document-units="mm"
     inkscape:zoom="1.4977807"
     inkscape:cx="471.03023"
     inkscape:cy="4.3397541"
     inkscape:window-width="1920"
     inkscape:window-height="986"
     inkscape:window-x="-11"
     inkscape:window-y="-11"
     inkscape:window-maximized="1"
     inkscape:current-layer="layer2"
     showgrid="false"
     inkscape:export-bgcolor="#ffffffff">
    <inkscape:grid
       id="grid1"
       units="mm"
       originx="0"
       originy="0"
       spacingx="0.99999999"
       spacingy="0.99999999"
       empcolor="#ffffff"
       empopacity="0.30196078"
       color="#ffffff"
       opacity="0.14901961"
       empspacing="5"
       dotted="false"
       gridanglex="30"
       gridanglez="30"
       visible="false" />
  </sodipodi:namedview>
  <defs
     id="defs1" />
  <g
     inkscape:groupmode="layer"
     id="layer2"
     inkscape:label="Logo&amp;Name"
     style="display:inline">
    <path
       style="mix-blend-mode:color-dodge;fill:#ffffff;fill-opacity:1;stroke-width:1.22216"
       d="m 235.07937,29.473569 v -9.377568 h 5.28158 5.28158 v 1.940192 1.940152 h -3.34141 -3.34142 v 1.616838 1.616835 h 3.23363 3.23362 v 1.940193 1.940193 h -3.23362 -3.23363 v 1.934822 1.934856 l 3.5031,0.0593 3.50313,0.05931 0.0622,1.886274 0.0624,1.886285 h -5.50556 -5.50558 z"
       id="path37-3-5-9" />
    <path
       style="mix-blend-mode:color-dodge;fill:#ffffff;fill-opacity:1;stroke-width:1.22216"
       d="m 200.15616,29.463787 v -9.38701 l 1.54915,0.06342 1.54917,0.06324 2.98855,4.634756 c 1.64373,2.549109 3.08079,4.726985 3.19351,4.839682 0.12959,0.129614 0.20493,-1.595813 0.20493,-4.688654 v -4.893563 h 2.04797 2.04796 v 9.377563 9.377542 l -1.56291,-0.01032 -1.56294,-0.01032 -3.12583,-4.887867 -3.12585,-4.887893 -0.0579,4.897538 -0.058,4.897514 h -2.04388 -2.04393 z"
       id="path36-1-3-7" />
    <path
       id="path34-2-5-2"
       style="mix-blend-mode:color-dodge;fill:#ffffff;fill-opacity:1;stroke-width:1.22216"
       d="m 186.40511,20.0779 -0.43272,1.248205 c -0.23801,0.686698 -1.44994,4.207258 -2.69321,7.823558 -1.24323,3.616274 -2.50807,7.278709 -2.81065,8.138314 l -0.55018,1.562446 h 2.12448 2.12499 l 0.41262,-1.239447 0.41316,-1.239448 2.81838,-0.05975 2.81888,-0.06027 0.41469,1.245629 0.4147,1.246143 2.18372,0.06131 2.18371,0.06079 -1.95086,-5.666116 c -1.07297,-3.116485 -2.50917,-7.315239 -3.19135,-9.330885 l -1.23996,-3.664765 -1.52021,-0.06283 z m 1.35895,8.253193 c 0.002,-7.6e-4 0.004,-6.34e-4 0.005,5.15e-4 0.0391,0.03914 0.41266,1.01528 0.83041,2.169289 l 0.75985,2.0982 h -1.50011 c -0.82485,0 -1.4996,-0.07252 -1.4996,-0.161241 0,-0.282866 1.29427,-4.05893 1.4048,-4.106763 z" />
    <path
       style="mix-blend-mode:color-dodge;fill:#ffffff;fill-opacity:1;stroke-width:1.22216"
       d="m 169.32887,31.413424 v -7.437395 h -2.15574 -2.15576 v -1.940172 -1.940192 h 6.35945 6.35949 v 1.940192 1.940172 h -2.15574 -2.15577 v 7.437395 7.437378 h -2.04798 -2.04795 z"
       id="path33-2-2-8" />
    <path
       style="mix-blend-mode:color-dodge;fill:#ffffff;fill-opacity:1;stroke-width:1.22216"
       d="m 132.03431,36.910619 v -1.940183 h 2.15577 2.15577 v -5.497204 -5.497203 h -1.40126 -1.40124 v -1.940172 -1.940192 h 4.85045 4.85045 v 1.940192 1.940172 h -1.40125 -1.40124 v 5.497203 5.497204 h 2.15576 2.15576 v 1.940183 1.940183 h -6.35948 -6.35949 z"
       id="path32-2-1-0" />
    <path
       style="mix-blend-mode:color-dodge;fill:#ffffff;fill-opacity:1;stroke-width:1.22216"
       d="m 99.913543,29.473232 v -9.377567 h 5.281587 5.28163 v 1.940192 1.940172 h -3.34146 -3.3414 v 1.616838 1.616818 h 3.23362 3.23366 v 1.940191 1.940193 h -3.23366 -3.23362 v 1.934837 1.934834 l 3.50309,0.05931 3.50312,0.0593 0.0622,1.886297 0.0622,1.886276 h -5.5056 -5.505547 z"
       id="path31-0-3-2" />
    <path
       id="path29-1-8-0"
       style="mix-blend-mode:color-dodge;fill:#ffffff;fill-opacity:1;stroke-width:1.22216"
       d="m 82.451802,20.095416 v 9.377759 9.377763 h 2.048231 2.047715 v -3.664766 -3.66528 h 0.62951 c 0.589547,0 0.761831,0.23322 2.706076,3.66528 l 2.076049,3.664766 H 94.2116 c 1.238905,0 2.252331,-0.07283 2.251703,-0.161757 -6.18e-4,-0.08892 -1.055409,-1.954961 -2.343914,-4.146945 l -2.342883,-3.985702 0.673297,-0.492482 c 3.21292,-2.351686 2.817743,-7.309732 -0.725333,-9.101127 -1.261734,-0.637977 -2.889141,-0.867509 -6.157049,-0.867509 z m 4.095946,3.880611 h 1.084902 c 1.478676,0 2.441526,0.437735 2.784889,1.266751 0.361326,0.872282 -0.01106,1.855925 -0.871107,2.300653 -0.333125,0.172326 -1.143972,0.313211 -1.801995,0.313211 h -1.196689 v -1.940565 z" />
    <path
       style="mix-blend-mode:color-dodge;fill:#ffffff;fill-opacity:1;stroke-width:1.22216"
       d="m 222.37597,38.88879 c -0.525,-0.198763 -1.45068,-0.813503 -2.05709,-1.366094 -2.07792,-1.893464 -2.99358,-4.392556 -2.98889,-8.157244 0.006,-4.496155 1.67388,-7.717777 4.70705,-9.090091 1.64723,-0.745263 4.32527,-0.708037 5.93491,0.08258 0.65571,0.322031 1.4767,0.882481 1.8244,1.245392 l 0.63215,0.65985 -1.32166,1.321675 -1.32167,1.321674 -0.67075,-0.564399 c -1.86743,-1.571356 -4.3666,-0.729653 -5.31662,1.790566 -0.52861,1.402328 -0.53455,5.118902 -0.0113,6.62928 0.7072,2.038571 2.35255,3.103021 4.06537,2.630099 1.02531,-0.283109 2.07097,-1.485375 2.24648,-2.582934 l 0.13693,-0.856678 h 2.02039 2.02042 v 0.746429 c 0,0.410543 -0.20979,1.307887 -0.46619,1.994066 -0.61571,1.647819 -2.61988,3.674252 -4.16869,4.214924 -1.38054,0.48194 -3.96758,0.472614 -5.26602,-0.01977 z"
       id="path28-7-6-5" />
    <path
       style="mix-blend-mode:color-dodge;fill:#ffffff;fill-opacity:1;stroke-width:1.22216"
       d="m 152.40619,38.844173 c -2.37296,-0.914325 -3.75245,-2.817193 -3.94119,-5.436619 l -0.10491,-1.455139 h 1.96917 1.96912 v 0.830424 c 0,0.955148 0.70763,2.149781 1.51548,2.55859 2.12907,1.077308 4.58393,-0.989629 3.60741,-3.037424 -0.28512,-0.597929 -0.7352,-0.909845 -2.63659,-1.827216 -2.75731,-1.330312 -3.6321,-1.96827 -4.32851,-3.156581 -1.48471,-2.533518 -0.47415,-5.817217 2.19445,-7.130674 1.25662,-0.618478 3.76332,-0.575089 5.03716,0.08714 0.53352,0.277401 1.23838,0.757829 1.56634,1.067629 l 0.59627,0.563238 -1.12784,1.142037 c -0.62032,0.628119 -1.21287,1.142038 -1.31678,1.142038 -0.10394,0 -0.4356,-0.194021 -0.73704,-0.431154 -1.17257,-0.922332 -2.86132,-0.336474 -2.86132,0.99261 0,0.991998 0.59181,1.52202 2.7285,2.443541 3.73304,1.610001 5.24779,3.262697 5.24779,5.725698 0,2.574557 -1.21755,4.563711 -3.48783,5.698184 -1.15962,0.579447 -1.53987,0.660041 -3.06776,0.650223 -1.18221,-0.0081 -2.09131,-0.145027 -2.82195,-0.426568 z"
       id="path27-0-2-4" />
    <path
       style="mix-blend-mode:color-dodge;fill:#ffffff;fill-opacity:1;stroke-width:1.22216"
       d="m 119.42312,38.844173 c -2.373,-0.914325 -3.75243,-2.817193 -3.94121,-5.436619 l -0.1049,-1.455139 h 1.96915 1.96916 v 0.830424 c 0,0.955148 0.70758,2.149781 1.51549,2.55859 2.12908,1.077308 4.58392,-0.989629 3.60739,-3.037424 -0.28514,-0.597929 -0.73521,-0.909845 -2.63661,-1.827216 -2.75727,-1.330312 -3.63212,-1.96827 -4.32848,-3.156581 -1.48475,-2.533518 -0.47418,-5.817217 2.19446,-7.130674 1.2566,-0.618478 3.7633,-0.575089 5.03711,0.08714 0.53358,0.277401 1.23844,0.757829 1.5664,1.067629 l 0.59626,0.563238 -1.12786,1.142037 c -0.62032,0.628119 -1.21288,1.142038 -1.31678,1.142038 -0.10394,0 -0.43559,-0.194021 -0.73708,-0.431154 -1.17253,-0.922332 -2.86129,-0.336474 -2.86129,0.99261 0,0.991998 0.59184,1.52202 2.72851,2.443541 3.73307,1.610001 5.24783,3.262697 5.24783,5.725698 0,2.574557 -1.21759,4.563711 -3.48786,5.698184 -1.15963,0.579447 -1.5399,0.660041 -3.06778,0.650223 -1.18221,-0.0081 -2.09131,-0.145027 -2.82194,-0.426568 z"
       id="path1-4-4-0" />
    <path
       style="fill:#ffffff;fill-opacity:1;stroke-width:1.22216"
       d="m 99.992883,57.928529 v -9.377522 h 1.464757 1.46472 l 3.1162,4.850453 c 1.71394,2.667731 3.18899,4.85044 3.27794,4.85044 0.0889,0 0.16163,-2.182709 0.16163,-4.85044 v -4.850453 h 2.04796 2.04796 v 9.377522 9.377498 h -1.5944 -1.59443 l -3.00664,-4.67748 c -1.65365,-2.572613 -3.11888,-4.714886 -3.25603,-4.760612 -0.18373,-0.06126 -0.24938,1.169308 -0.24938,4.677469 v 4.760623 h -1.94019 -1.940187 z"
       id="path18-7-6-0" />
    <path
       style="fill:#ffffff;fill-opacity:1;stroke-width:1.22216"
       d="m 82.505212,65.262714 v -1.94016 h 2.155743 2.155734 V 57.825398 52.328207 H 85.41546 84.014223 v -1.940183 -1.940193 h 4.850399 4.850452 v 1.940193 1.940183 H 92.31383 90.912565 v 5.497191 5.497156 h 2.155782 2.155727 v 1.94016 1.940183 h -6.359452 -6.35941 z"
       id="path17-2-4-8" />
    <path
       style="fill:#ffffff;fill-opacity:1;stroke-width:1.22216"
       d="m 232.15044,57.645284 v -9.386217 l 1.75914,0.06262 1.75911,0.06263 1.67979,2.691263 c 0.92388,1.480196 1.76862,2.720875 1.8771,2.757045 0.10846,0.03611 0.96198,-1.201537 1.89657,-2.750475 l 1.69924,-2.816245 1.72463,0.0593 1.72459,0.0592 0.0561,9.323637 0.056,9.323636 h -2.04668 -2.04669 l -0.0576,-5.658847 -0.0576,-5.658858 -0.94075,1.562918 -0.94076,1.562916 h -1.13396 -1.13401 l -0.88807,-1.455114 -0.88809,-1.455133 -9.2e-4,5.551052 -9.4e-4,5.551066 h -2.04796 -2.04798 z"
       id="path14-0-2-3" />
    <path
       style="fill:#ffffff;fill-opacity:1;stroke-width:1.22216"
       d="m 197.22723,65.091378 v -1.940194 h 2.26725 2.26723 l -0.0575,-5.443282 -0.0576,-5.443271 -1.45515,-0.06388 -1.45513,-0.06389 v -1.930303 -1.930332 h 4.95824 4.95822 v 1.930332 1.930307 l -1.45511,0.06388 -1.45514,0.06389 -0.0575,5.443269 -0.0577,5.443283 h 2.26723 2.26725 v 1.940195 1.940172 h -6.46727 -6.46727 z"
       id="path13-9-6-7" />
    <path
       style="fill:#ffffff;fill-opacity:1;stroke-width:1.22216"
       d="m 162.95071,57.654028 v -9.377533 h 2.048 2.04797 v 7.437351 7.437338 h 3.77258 3.77255 v 1.940194 1.940159 h -5.82053 -5.82057 z"
       id="path12-6-9-7" />
    <path
       style="fill:#ffffff;fill-opacity:1;stroke-width:1.22216"
       d="m 146.78259,57.654028 v -9.377533 h 5.28159 5.28158 v 1.940159 1.940196 h -3.34139 -3.34143 v 1.616824 1.61679 h 3.23362 3.23365 v 1.940183 1.940195 h -3.23365 -3.23362 v 1.934834 1.934811 l 3.50309,0.0592 3.5031,0.05931 0.0624,1.886274 0.0624,1.886299 h -5.50557 -5.50557 z"
       id="path11-5-4-5" />
    <path
       style="fill:#ffffff;fill-opacity:1;stroke-width:1.22216"
       d="m 217.94675,67.094474 c -1.3712,-0.484478 -2.88635,-2.056284 -3.44525,-3.574127 -0.43376,-1.178016 -0.4594,-1.63815 -0.4594,-8.245734 v -6.998118 h 1.92594 1.92597 l 0.0685,6.52115 c 0.057,5.434117 0.12644,6.648565 0.41594,7.285488 0.93158,2.049268 3.79522,2.119416 4.8905,0.119931 0.31769,-0.580008 0.37491,-1.548127 0.43168,-7.305489 l 0.0654,-6.636875 1.98255,0.06183 1.98249,0.06182 -0.0114,6.790635 c -0.0113,6.372328 -0.0404,6.867227 -0.47015,8.034248 -0.64778,1.759155 -1.56763,2.819733 -3.11699,3.593935 -1.19416,0.596726 -1.50674,0.657972 -3.27959,0.642566 -1.17699,-0.01032 -2.33738,-0.15056 -2.90543,-0.351176 z"
       id="path7-0-6-2" />
    <path
       style="fill:#ffffff;fill-opacity:1;stroke-width:1.22216"
       d="m 182.86055,67.013825 c -3.13328,-1.204988 -5.03957,-4.756008 -5.03193,-9.373556 0.007,-4.522923 1.62936,-7.681647 4.7232,-9.198643 1.51437,-0.742534 4.20083,-0.687986 5.94459,0.120684 0.71141,0.329918 1.61004,0.905938 1.997,1.28004 l 0.70357,0.680189 -1.32854,1.340413 -1.32851,1.340462 -0.85233,-0.68498 c -0.73862,-0.593572 -1.01983,-0.684932 -2.10781,-0.684932 -1.53863,0 -2.23701,0.453953 -3.01038,1.956697 -0.49528,0.962396 -0.54025,1.283775 -0.54025,3.858092 0,3.262025 0.34944,4.360876 1.71902,5.405487 1.66274,1.268244 3.97219,0.542603 4.74933,-1.49223 0.58789,-1.539385 0.44971,-1.741247 -1.2429,-1.815498 l -1.45286,-0.06388 v -1.60696 -1.606975 h 3.43941 3.43943 l 0.1474,0.785893 c 0.24975,1.33117 -0.0547,4.392501 -0.57488,5.78248 -0.64474,1.722538 -2.23811,3.327454 -3.93318,3.961668 -1.61733,0.605117 -3.90924,0.611574 -5.45942,0.01576 z"
       id="path2-9-2-2" />
    <path
       id="path8-1-1-0"
       style="fill:#ffffff;fill-opacity:1;stroke-width:1.22216"
       d="m 127.81212,48.276609 v 9.395791 9.396308 l 4.58069,-0.08862 c 5.35883,-0.103443 6.12898,-0.290253 7.71023,-1.871534 1.20227,-1.202297 1.61844,-2.453032 1.44654,-4.348366 -0.14382,-1.586011 -0.85728,-2.769002 -2.17393,-3.603978 l -0.9185,-0.582119 0.62076,-0.968993 c 0.56078,-0.875046 0.61354,-1.117087 0.54915,-2.497439 -0.0929,-1.991208 -0.74262,-3.042056 -2.37278,-3.836827 -1.59478,-0.777523 -3.00195,-0.994236 -6.45378,-0.994236 z m 3.98725,3.988277 h 1.44911 c 1.20462,0 1.52885,0.07964 1.92204,0.472908 0.61588,0.615045 0.62068,1.667602 0.0113,2.276955 h -9.8e-4 c -0.35228,0.352284 -0.79688,0.483608 -1.86535,0.551725 -1.651,0.105135 -1.67582,0.07511 -1.58152,-1.923564 z m 2.19712,6.810778 c 2.42382,0.0047 3.5164,0.67152 3.5164,2.116744 0,1.036782 -0.47964,1.67665 -1.46149,1.949322 -1.20523,0.334776 -4.13154,0.291974 -4.26748,-0.06234 -0.0612,-0.158125 -0.0817,-1.103903 -0.0469,-2.101807 l 0.0628,-1.814351 1.40121,-0.068 c 0.27949,-0.01356 0.54465,-0.02006 0.79539,-0.01958 z" />
    <rect
       style="fill:#ffffff;stroke-width:0.227242"
       id="rect2-9-2-8-9-0"
       width="2.4926236"
       height="47.101456"
       x="71.509247"
       y="20.034008" />
    <g
       id="g1244-5-5-1"
       transform="matrix(2.4449693,0,0,2.4449693,-354.0847,-207.5701)"
       style="fill:#ffffff;fill-opacity:1">
      <path
         id=" rect1025-8-9-5-0-5-3-1-2-6-9-2"
         style="clip-rule:evenodd;fill:#ffffff;fill-opacity:1;fill-rule:nonzero;stroke:none;stroke-width:0.036689;stroke-miterlimit:4;stroke-dasharray:none"
         d="m 163.3971,94.642787 -2.68796,7.744193 -6.0655,-4.642854 3.58873,-1.873134 -0.27067,-0.543444 -4.05713,2.117714 0.11044,0.221857 -0.17547,0.225111 6.39973,4.89836 -7.42998,3.11432 0.099,0.25137 -0.20154,0.1826 3.09923,3.38221 0.44936,-0.40625 -2.77818,-3.0314 7.22581,-3.02877 4.70448,6.78506 -3.74162,1.07804 0.15788,0.58649 3.5149,-1.01254 -0.31868,0.57002 0.58731,0.34577 4.75549,-8.50536 -0.58734,-0.34577 -0.48187,0.86145 -1.30061,-3.873421 -0.57446,0.18706 1.29183,3.846001 -7.45689,-1.11759 2.71021,-7.807032 -0.56652,-0.210061 m -1.92137,8.664993 7.37345,1.10517 -2.94955,5.27541 -4.4239,-6.38058" />
      <path
         id=" path1154-2-30-0-1-0-3-8-9-3-6-8-6-4-8-6-6-9-5-1-3-2-7-9-1-3-9"
         style="clip-rule:evenodd;fill:#ffffff;fill-opacity:1;fill-rule:evenodd;stroke:none;stroke-width:0.0367273"
         d="m 163.16009,103.92406 c -0.55602,1.34738 -2.09117,1.98562 -3.42897,1.42563 -1.33777,-0.55999 -1.97153,-2.10612 -1.4155,-3.4535 0.556,-1.34732 2.0912,-1.985601 3.42896,-1.42562 1.33781,0.56 1.97152,2.10616 1.41551,3.45349 z" />
      <path
         id=" path1154-2-30-7-1-6-3-1-6-4-3-7-5-2-8-3-8-9-3-6-9-4-1-0-7-5-6"
         style="clip-rule:evenodd;fill:#ffffff;fill-opacity:1;fill-rule:evenodd;stroke:none;stroke-width:0.0367273"
         d="m 154.78549,107.15719 c -0.42073,1.01955 -1.58234,1.50251 -2.59464,1.07874 -1.01227,-0.42372 -1.49182,-1.59366 -1.07109,-2.6132 0.42072,-1.0195 1.58239,-1.50247 2.59465,-1.07874 1.0123,0.42374 1.4918,1.59369 1.07108,2.6132 z" />
      <path
         id=" path1154-2-30-2-8-9-2-0-0-6-3-6-5-2-1-5-8-0-4-3-2-57-3-4-7-8-0"
         style="clip-rule:evenodd;fill:#ffffff;fill-opacity:1;fill-rule:evenodd;stroke:none;stroke-width:0.0367273"
         d="m 155.68379,98.460989 c -0.33955,0.8228 -1.277,1.21255 -2.09396,0.87057 -0.81693,-0.34195 -1.20394,-1.286125 -0.8644,-2.108924 0.33953,-0.822771 1.27703,-1.212544 2.09396,-0.870582 0.81696,0.341973 1.20393,1.286165 0.8644,2.108936 z" />
      <path
         id=" path1154-2-30-4-0-8-5-7-3-2-2-9-3-7-0-1-7-5-8-4-9-1-5-6-9-0-4"
         style="clip-rule:evenodd;fill:#ffffff;fill-opacity:1;fill-rule:evenodd;stroke:none;stroke-width:0.0367273"
         d="m 158.80835,95.955357 c -0.21539,0.521949 -0.81007,0.769193 -1.32831,0.552257 -0.51823,-0.216927 -0.76374,-0.815868 -0.54834,-1.337817 0.21538,-0.521929 0.81009,-0.769185 1.32832,-0.552257 0.51824,0.216932 0.76372,0.815888 0.54833,1.337817 z" />
      <path
         id=" path1154-2-30-21-6-4-4-0-4-1-4-7-0-9-6-8-1-0-2-7-1-4-1-9-2-5-1"
         style="clip-rule:evenodd;fill:#ffffff;fill-opacity:1;fill-rule:evenodd;stroke:none;stroke-width:0.0367273"
         d="m 165.28288,95.815994 c -0.41157,0.997375 -1.54791,1.46979 -2.53819,1.05528 -0.99024,-0.414514 -1.45936,-1.558992 -1.04778,-2.556351 0.41157,-0.997319 1.54796,-1.469778 2.5382,-1.055272 0.99028,0.414526 1.45934,1.559024 1.04777,2.556343 z" />
      <path
         id=" path1154-2-30-78-3-6-3-6-8-8-3-7-6-2-2-9-5-9-3-8-9-5-1-3-1-2-4"
         style="clip-rule:evenodd;fill:#ffffff;fill-opacity:1;fill-rule:evenodd;stroke:none;stroke-width:0.0367273"
         d="m 170.85211,104.88562 c -0.35756,0.86643 -1.34473,1.27686 -2.20502,0.91675 -0.86026,-0.36009 -1.2678,-1.35435 -0.91024,-2.22079 0.35754,-0.8664 1.34476,-1.27684 2.20501,-0.91675 0.86029,0.36011 1.26779,1.35438 0.91025,2.22079 z" />
      <path
         id=" path1154-2-30-3-9-6-7-6-7-6-0-5-8-0-4-9-2-8-5-9-1-3-9-8-9-8-0"
         style="clip-rule:evenodd;fill:#ffffff;fill-opacity:1;fill-rule:evenodd;stroke:none;stroke-width:0.0367273"
         d="m 167.76111,110.69714 c -0.41158,0.99737 -1.54792,1.46979 -2.53819,1.05528 -0.99024,-0.41451 -1.45936,-1.55899 -1.04778,-2.55635 0.41156,-0.99732 1.54795,-1.46978 2.53819,-1.05527 0.99028,0.41452 1.45935,1.55902 1.04778,2.55634 z" />
      <path
         id=" path1154-2-30-4-6-1-5-0-8-0-3-6-8-4-2-4-1-3-7-5-5-4-6-9-0-2-9-7-9"
         style="clip-rule:evenodd;fill:#ffffff;fill-opacity:1;fill-rule:evenodd;stroke:none;stroke-width:0.0367273"
         d="m 163.05183,111.77768 c -0.23891,0.57892 -0.8985,0.85315 -1.47331,0.61253 -0.57479,-0.2406 -0.84709,-0.90492 -0.60819,-1.48383 0.2389,-0.57891 0.89852,-0.85315 1.47331,-0.61254 0.57481,0.24061 0.84708,0.90494 0.60819,1.48384 z" />
      <path
         id=" path1154-2-30-4-0-8-5-7-3-2-2-9-3-7-9-9-3-0-9-9-7-8-34-4-5-6-8-9"
         style="clip-rule:evenodd;fill:#ffffff;fill-opacity:1;fill-rule:evenodd;stroke:none;stroke-width:0.0367273"
         d="m 168.59687,99.961589 c -0.2154,0.521951 -0.81008,0.769191 -1.32832,0.552251 -0.51822,-0.21692 -0.76373,-0.815861 -0.54834,-1.337811 0.21539,-0.521932 0.81009,-0.769188 1.32832,-0.55226 0.51825,0.21693 0.76372,0.81589 0.54834,1.33782 z" />
      <path
         id=" path1154-2-30-4-6-1-5-0-8-0-3-6-8-4-2-4-4-0-0-5-4-5-9-2-6-3-5-1-7-4"
         style="clip-rule:evenodd;fill:#ffffff;fill-opacity:1;fill-rule:evenodd;stroke:none;stroke-width:0.0367273"
         d="m 157.6893,110.58453 c -0.23891,0.57892 -0.8985,0.85315 -1.47331,0.61254 -0.57479,-0.24061 -0.84709,-0.90492 -0.60819,-1.48384 0.2389,-0.5789 0.89852,-0.85314 1.47331,-0.61254 0.57481,0.24061 0.84708,0.90494 0.60819,1.48384 z" />
    </g>
  </g>
</svg>
